# xmcd
#
# Track frame offsets: 
#        150
#        14720
#        28307
#        41222
#        56592
#        70137
#        83302
#        99445
#        115255
#        128942
#        143230
#        157847
#        173710
#        187615
#        206820
#
# Disc length: 3011 seconds
#
# Revision: 0
# Processed by: cddbd v1.5PL3 Copyright (c) Steve Scherf et al.
# Submitted via: ExactAudioCopy v0.95a3
#
DISCID=c80bc10f
DTITLE=A*Teens - New arrival
DYEAR=2003
DGENRE=
TTITLE0=Floorfiller
TTITLE1=Have A Little Faith In Me
TTITLE2=Shame Shame Shame
TTITLE3=Let Your Heart Do All The Talking
TTITLE4=A Perfect Match
TTITLE5=The Letter
TTITLE6=Cross My Heart
TTITLE7=In The Blink Of An Eye
TTITLE8=School's Out
TTITLE9=Closer To Perfection
TTITLE10=Shangri La
TTITLE11=One Night In Bangkok
TTITLE12=Can't Help Falling In Love
TTITLE13=Heartbreak Lullaby (Ballad Version)
TTITLE14=Hi And Goodbye
EXTD=
EXTT0=
EXTT1=
EXTT2=
EXTT3=
EXTT4=
EXTT5=
EXTT6=
EXTT7=
EXTT8=
EXTT9=
EXTT10=
EXTT11=
EXTT12=
EXTT13=
EXTT14=
PLAYORDER=
